<?xml version="1.0" standalone="no"?>
<!DOCTYPE svg PUBLIC "-//W3C//DTD SVG 20010904//EN"
 "http://www.w3.org/TR/2001/REC-SVG-20010904/DTD/svg10.dtd">
<svg version="1.0" xmlns="http://www.w3.org/2000/svg"
 width="559.000000pt" height="447.000000pt" viewBox="0 0 559.000000 447.000000"
 preserveAspectRatio="xMidYMid meet">

<g transform="translate(0.000000,447.000000) scale(0.100000,-0.100000)"
fill="#000000" stroke="none">
<path d="M1640 4457 c-3 -3 -241 -8 -530 -11 -289 -4 -534 -11 -545 -16 -11
-5 -33 -11 -50 -15 l-30 -7 30 -12 c19 -8 25 -15 17 -20 -7 -4 -12 -2 -12 4 0
7 -6 10 -14 7 -7 -3 -18 -1 -23 4 -7 7 -15 5 -25 -4 -7 -8 -24 -18 -36 -21
-12 -4 -22 -12 -22 -17 0 -6 -4 -7 -10 -4 -5 3 -10 2 -10 -3 0 -5 -11 -14 -25
-20 -14 -6 -25 -19 -25 -28 0 -10 -6 -14 -14 -11 -17 7 -49 -26 -39 -38 5 -4
3 -6 -2 -2 -14 7 -71 -51 -84 -85 -7 -20 -7 -28 2 -31 7 -2 5 -3 -3 -2 -8 0
-14 8 -12 16 1 9 -4 7 -13 -6 -9 -11 -13 -25 -10 -33 3 -8 0 -10 -7 -6 -8 5
-9 2 -5 -9 3 -9 1 -19 -5 -23 -7 -4 -8 -3 -4 4 4 7 2 12 -5 12 -7 0 -9 -12 -6
-37 3 -21 3 -30 1 -20 -10 34 -30 17 -25 -22 2 -7 -2 -10 -7 -7 -15 9 -31 -38
-20 -58 5 -10 7 -20 4 -23 -3 -4 -6 -1 -6 5 0 7 -4 12 -10 12 -13 0 -30 -69
-24 -99 4 -20 3 -22 -5 -11 -7 10 -11 -19 -13 -100 -2 -63 0 -119 4 -125 11
-13 10 -27 -2 -20 -11 7 -8 -465 3 -505 6 -21 6 -22 -3 -5 -7 14 -8 -14 -3
-90 4 -60 6 -123 5 -138 -1 -15 2 -26 6 -23 4 2 7 -19 7 -47 -1 -81 36 -247
55 -247 11 0 44 105 44 136 0 12 5 20 10 18 10 -4 45 67 50 101 1 8 8 21 14
27 7 7 12 17 12 24 0 6 7 17 15 24 8 7 13 16 10 20 -3 5 -1 11 5 15 6 4 8 11
4 16 -3 5 0 8 8 7 8 -2 13 6 12 19 0 12 3 20 6 18 4 -3 15 4 25 15 20 22 8 28
-15 8 -8 -7 -11 -9 -7 -4 4 5 1 16 -6 25 -10 14 -10 14 4 3 14 -11 21 -9 45
14 16 15 22 23 14 18 -9 -5 -6 0 7 11 13 12 23 26 23 32 0 6 7 13 15 17 8 3
15 12 15 21 0 8 5 15 10 15 6 0 10 6 10 13 0 7 9 18 21 25 12 7 18 16 15 19
-3 4 0 13 7 21 10 13 9 15 -6 9 -24 -9 -21 0 4 14 15 8 19 8 15 0 -4 -6 -4
-11 -1 -11 9 0 120 122 117 129 -2 3 6 9 18 13 12 4 19 12 15 17 -3 5 0 13 6
17 8 4 9 3 5 -4 -8 -14 52 -5 72 11 7 6 12 6 12 0 0 -5 19 -15 42 -22 37 -11
43 -11 54 4 8 11 13 12 16 4 3 -8 9 -9 17 -5 11 7 11 10 0 17 -8 5 -9 9 -4 9
6 0 16 -4 23 -9 11 -7 10 -9 -3 -15 -9 -3 -13 -11 -9 -17 4 -8 1 -8 -15 0 -17
10 -20 9 -15 -4 4 -8 10 -15 15 -15 5 0 9 -6 9 -14 0 -8 5 -16 10 -18 6 -2 12
-12 14 -23 3 -11 12 -40 21 -65 9 -25 18 -61 21 -80 3 -19 10 -40 16 -47 5 -7
7 -17 4 -22 -4 -5 -2 -12 3 -16 6 -3 8 -12 4 -20 -3 -8 0 -15 6 -15 6 0 10
-15 9 -32 0 -18 9 -65 21 -104 21 -71 31 -82 83 -88 4 -1 13 -7 19 -13 7 -7
17 -13 21 -13 5 0 26 -12 48 -26 28 -19 45 -24 62 -18 21 6 22 6 8 -12 -8 -10
-10 -16 -5 -11 4 4 18 -2 29 -12 12 -11 49 -34 84 -51 34 -17 62 -35 62 -41 0
-6 5 -7 10 -4 6 3 13 0 16 -9 3 -8 19 -19 35 -25 16 -5 29 -14 29 -20 0 -5 9
-13 21 -16 12 -4 30 -16 41 -27 19 -19 20 -19 41 -1 12 10 19 14 15 9 -4 -5
-2 -16 5 -25 11 -14 10 -14 -5 -2 -10 7 -18 9 -18 3 0 -5 22 -24 50 -42 36
-23 55 -30 72 -24 13 4 46 6 73 5 28 -1 45 2 39 6 -7 5 76 9 185 11 151 3 207
0 244 -11 43 -14 51 -13 49 4 -1 3 6 6 14 6 12 0 12 -3 -1 -17 -13 -15 -14
-20 -3 -31 15 -16 18 -90 4 -81 -5 3 -6 -3 -2 -14 4 -10 4 -15 0 -11 -12 12
-43 -57 -31 -71 7 -9 6 -11 -5 -7 -9 4 -22 -8 -36 -33 -12 -22 -29 -45 -37
-52 -8 -7 -12 -16 -10 -21 3 -4 -4 -13 -16 -19 -11 -7 -18 -14 -16 -17 3 -2
16 1 29 8 26 14 54 21 43 11 -4 -4 -10 -7 -13 -8 -19 -2 -41 -17 -37 -24 3 -5
-3 -6 -14 -3 -22 6 -67 -50 -55 -68 4 -7 3 -9 -3 -6 -17 11 -31 -15 -28 -51 1
-18 -2 -35 -8 -39 -6 -3 -7 -1 -3 5 4 7 2 12 -4 12 -7 0 -7 7 1 22 l12 23 -20
-20 c-11 -11 -19 -21 -18 -23 1 -1 -11 -17 -26 -33 -28 -31 -40 -67 -17 -53 7
4 8 3 4 -5 -4 -6 -11 -9 -16 -6 -11 7 -47 -38 -100 -125 -24 -41 -63 -95 -85
-119 -22 -24 -39 -47 -37 -52 1 -5 -2 -8 -7 -7 -5 2 -23 -12 -40 -29 -17 -18
-31 -30 -31 -27 0 3 -20 -11 -45 -31 -25 -21 -42 -42 -38 -48 3 -6 1 -7 -5 -3
-7 4 -30 -3 -52 -15 l-39 -22 21 -19 c27 -23 34 -23 17 0 -7 9 5 0 26 -22 38
-36 112 -90 127 -91 3 0 10 -3 14 -7 11 -12 26 -10 19 2 -10 16 1 11 16 -7 12
-15 12 -16 -1 -8 -13 8 -13 7 -1 -9 8 -9 20 -15 27 -12 8 3 13 2 11 -2 -1 -4
0 -7 3 -8 3 0 21 -15 40 -32 19 -18 40 -32 46 -32 6 0 22 -9 35 -21 33 -29 70
-42 83 -29 13 13 36 13 36 0 0 -6 -6 -10 -14 -8 -23 5 -23 -14 -1 -26 11 -6
22 -14 25 -18 3 -3 12 -8 20 -10 8 -2 21 -9 28 -15 7 -7 18 -13 25 -13 6 0 2
6 -8 14 -18 13 -18 13 1 24 13 8 14 11 5 12 -8 0 -12 2 -9 5 3 3 13 2 23 -1
15 -6 15 -8 -6 -20 -19 -10 -20 -13 -6 -14 9 0 17 -7 17 -16 0 -10 6 -14 14
-11 10 4 13 1 9 -9 -3 -9 2 -15 13 -16 11 0 24 -2 31 -2 7 -1 20 -10 28 -21 9
-11 14 -15 11 -8 -4 6 -2 14 3 18 6 3 8 -5 5 -18 -4 -26 23 -44 64 -41 26 2
27 0 5 -17 -10 -8 -14 -9 -10 -2 5 8 1 11 -12 10 -17 -1 -15 -5 13 -42 17 -22
32 -42 34 -45 2 -2 7 1 11 9 6 10 10 9 15 -5 3 -9 4 -19 1 -22 -3 -3 -5 1 -5
8 0 7 -2 11 -5 8 -8 -8 6 -39 15 -33 5 3 8 -3 8 -12 -1 -16 68 -129 105 -173
6 -8 11 -18 10 -22 -2 -5 4 -8 12 -8 8 0 15 -5 15 -11 0 -5 -6 -7 -12 -3 -11
7 4 -18 22 -36 23 -23 42 -52 30 -45 -13 8 -13 7 0 -11 8 -10 21 -25 28 -32 6
-7 12 -19 12 -25 0 -7 11 -25 25 -40 14 -15 23 -27 18 -27 -4 0 2 -6 13 -14
10 -8 19 -19 19 -24 0 -12 33 -59 68 -95 15 -16 27 -31 27 -33 0 -8 54 -53 63
-54 5 0 15 -7 23 -15 23 -23 84 -4 132 40 15 14 30 25 34 25 5 0 8 5 8 11 0 5
-4 7 -10 4 -5 -3 -18 -1 -27 4 -14 8 -10 10 19 6 30 -3 40 0 48 15 6 11 7 20
3 21 -4 0 2 4 15 10 15 5 21 13 16 21 -4 7 -3 10 1 5 10 -9 55 31 55 50 0 7 5
13 10 13 6 0 10 7 10 16 0 10 -6 14 -14 11 -10 -4 -13 -1 -9 9 7 19 19 18 27
-3 6 -14 9 -13 23 8 10 13 23 30 30 37 16 17 17 46 1 36 -7 -4 -8 -3 -4 5 6 9
11 9 22 0 8 -6 15 -9 15 -5 1 3 2 12 3 19 1 6 7 11 13 10 7 -2 10 6 8 17 -3
13 1 17 11 13 15 -5 19 8 7 21 -10 10 -12 56 -2 51 4 -3 9 -2 12 2 2 5 3 3 1
-3 -1 -6 3 -17 9 -24 9 -10 9 -11 0 -6 -13 7 -28 -10 -15 -18 15 -9 55 41 48
59 -4 10 -2 14 6 9 7 -5 9 1 5 17 -8 31 17 64 48 64 34 1 68 34 54 52 -7 7 -9
16 -5 20 3 3 6 1 6 -5 0 -7 5 -12 10 -12 6 0 10 6 10 13 0 8 32 43 71 78 40
35 79 71 87 79 14 13 101 15 661 15 355 0 657 4 671 9 24 9 24 9 5 17 -13 6
-8 7 16 3 34 -5 82 10 139 45 8 5 27 14 42 21 15 7 25 17 22 22 -3 4 4 8 14 8
23 0 45 23 34 35 -4 5 -1 5 6 1 8 -5 21 -1 33 10 15 13 16 20 7 31 -15 19 2
36 22 22 13 -9 12 -10 -2 -5 -20 6 -25 -9 -5 -17 6 -2 27 11 45 29 19 19 29
34 23 34 -5 0 -9 9 -8 19 0 11 6 19 12 18 5 -1 9 4 7 11 -1 8 2 11 8 7 8 -5 6
-13 -6 -26 -9 -10 -12 -19 -6 -19 11 0 62 61 62 74 0 4 12 23 26 42 15 19 24
40 20 49 -3 9 -2 13 4 10 5 -3 14 4 19 17 5 13 18 48 30 79 l22 57 -1 932 c0
514 -3 945 -5 959 -5 22 -4 23 4 6 9 -18 10 -17 10 8 1 16 -3 26 -8 23 -5 -3
-2 22 5 57 7 34 13 84 14 111 0 44 -2 47 -17 35 -15 -13 -15 -12 -5 8 19 35
14 51 -7 20 -15 -23 -19 -25 -25 -12 -3 9 -2 14 3 11 5 -3 16 5 24 18 17 26
15 158 -3 206 -1 3 -1 13 0 24 1 11 -3 15 -9 12 -6 -4 -9 -1 -5 7 6 16 -32
124 -48 133 -6 4 -8 -2 -4 -17 6 -21 5 -22 -4 -6 -8 13 -8 22 -1 31 12 14 -57
129 -72 119 -6 -3 -7 -1 -4 4 4 6 -2 22 -14 34 -11 13 -17 18 -13 10 5 -10 3
-12 -5 -7 -7 5 -10 10 -7 13 9 10 -14 43 -30 43 -8 0 -13 4 -10 8 5 9 -77 82
-91 82 -4 0 0 -7 11 -15 18 -13 18 -14 -2 -12 -13 1 -19 7 -17 19 5 25 -53 67
-66 47 -6 -10 -9 -8 -9 10 0 13 -3 21 -7 18 -3 -4 -15 1 -26 10 -20 17 -20 17
-13 -1 5 -16 4 -17 -9 -6 -8 7 -13 16 -10 20 2 4 -8 12 -23 19 -24 10 -25 10
-9 -3 16 -12 16 -14 2 -20 -9 -3 -14 -2 -11 3 3 4 -2 15 -12 24 -12 11 -49 18
-132 23 -129 7 -3253 18 -3260 11z m-1163 -82 c0 -8 -4 -12 -9 -9 -5 3 -6 10
-3 15 9 13 12 11 12 -6z m-84 -57 c-4 -7 -8 -16 -8 -20 0 -3 -3 -9 -7 -12 -5
-3 -6 -3 -3 1 3 3 -1 13 -8 21 -9 13 -9 14 1 8 6 -4 12 -2 12 3 0 6 5 11 11
11 6 0 7 -5 2 -12z m-116 -103 c0 -17 -13 -20 -21 -6 -4 5 0 12 6 14 7 3 13 6
14 6 0 1 1 -6 1 -14z m-43 -36 c-3 -5 -10 -7 -15 -3 -5 3 -7 10 -3 15 3 5 10
7 15 3 5 -3 7 -10 3 -15z m-110 -205 c3 -8 2 -12 -4 -9 -6 3 -10 10 -10 16 0
14 7 11 14 -7z m-67 -136 c-3 -8 -6 -5 -6 6 -1 11 2 17 5 13 3 -3 4 -12 1 -19z
m2743 -68 c0 -5 -4 -10 -10 -10 -5 0 -10 5 -10 10 0 6 5 10 10 10 6 0 10 -4
10 -10z m1080 -40 c0 -5 -4 -10 -10 -10 -5 0 -10 5 -10 10 0 6 5 10 10 10 6 0
10 -4 10 -10z m-1245 -20 c-7 -12 27 -14 41 -2 5 4 8 5 7 3 -2 -2 5 -10 14
-16 9 -7 18 -25 20 -41 3 -16 8 -30 14 -32 5 -2 9 -12 9 -23 0 -10 6 -19 14
-19 10 0 12 -7 8 -22 -4 -16 -2 -19 8 -13 8 5 11 4 7 -2 -10 -16 8 -68 24 -68
9 0 13 -9 11 -27 -4 -29 22 -88 39 -88 6 0 7 -5 4 -11 -4 -5 1 -20 12 -31 12
-15 13 -19 3 -13 -12 6 -13 5 -2 -6 6 -7 12 -26 12 -42 0 -20 4 -26 13 -21 6
4 3 -2 -7 -14 -11 -12 -30 -22 -43 -22 -15 0 -22 -4 -18 -11 4 -6 13 -8 19 -6
7 3 13 0 13 -6 0 -7 -13 -12 -28 -12 -22 -1 -26 2 -17 12 7 9 6 14 -6 19 -9 3
-14 10 -11 14 3 5 1 11 -5 15 -5 3 -10 16 -10 29 0 29 -10 39 -27 25 -20 -17
-16 -34 5 -18 14 11 15 11 5 -1 -16 -17 -43 -22 -40 -7 1 6 11 19 21 28 34 28
11 39 -88 39 l-92 0 -22 -41 c-22 -41 -29 -75 -14 -65 4 2 9 -7 10 -21 1 -15
-1 -23 -5 -19 -5 4 -8 13 -8 18 0 6 -6 13 -14 16 -10 3 -13 -2 -9 -22 4 -20 2
-24 -7 -16 -6 5 -16 6 -21 2 -4 -4 -3 0 3 8 10 13 7 16 -19 18 l-32 3 20 -23
c11 -13 12 -18 3 -10 -9 6 -18 9 -21 6 -8 -7 -2 72 7 88 3 7 -3 2 -14 -11 -12
-13 -21 -19 -21 -13 0 6 11 19 25 30 13 10 25 25 27 33 2 8 8 17 13 21 6 5 5
8 -2 8 -7 0 -13 5 -13 11 0 5 4 8 9 5 4 -3 13 6 19 19 9 19 9 25 -1 25 -6 0
-4 5 5 11 14 8 15 14 6 35 -8 17 -8 28 -1 35 7 7 12 5 17 -6 3 -9 2 -13 -4
-10 -6 3 -10 2 -10 -4 0 -5 5 -13 10 -16 9 -5 12 1 9 21 0 4 5 11 13 15 7 5 8
9 2 9 -6 0 -9 16 -8 38 2 46 2 45 14 37 6 -4 7 -12 3 -18 -10 -17 -13 -37 -4
-37 12 0 38 63 36 87 -1 12 2 20 6 18 4 -3 10 2 13 11 3 8 2 12 -3 9 -5 -3
-13 0 -17 6 -4 8 -3 9 4 5 7 -4 12 -2 12 4 0 6 6 8 13 4 6 -4 1 6 -13 22 -18
21 -19 24 -4 11 22 -19 34 -13 47 26 4 9 9 17 12 17 4 0 3 -4 0 -10z m602 -5
c5 -4 2 -5 -6 0 -9 5 -12 4 -7 -3 9 -15 38 -3 29 12 -3 6 3 3 14 -7 11 -9 22
-15 25 -12 2 3 5 -2 5 -10 0 -13 -3 -13 -18 1 -11 10 -19 12 -24 5 -3 -6 1
-11 9 -11 8 0 20 -8 25 -17 6 -11 11 -13 11 -5 0 7 5 10 10 7 6 -4 8 -10 6
-14 -7 -11 29 -62 38 -54 4 4 5 1 2 -7 -8 -20 7 -73 21 -77 6 -2 13 4 16 14 4
15 5 14 6 -3 0 -12 -6 -25 -15 -28 -12 -5 -15 -16 -12 -44 3 -20 1 -47 -3 -60
-7 -17 -6 -21 4 -16 8 6 8 3 -1 -9 -8 -9 -10 -22 -6 -29 4 -7 4 -10 -1 -6 -4
4 -16 -9 -27 -28 -14 -26 -16 -39 -8 -49 8 -9 7 -13 -2 -12 -34 1 -46 -5 -57
-29 -9 -21 -14 -24 -26 -14 -14 12 -17 9 -14 -17 0 -5 6 -7 14 -5 7 1 16 -1
19 -6 9 -15 -32 -7 -51 10 -14 12 -44 16 -133 17 -63 1 -124 4 -135 6 -11 2
-24 4 -28 4 -5 1 -5 6 -1 12 4 8 9 7 15 -2 6 -10 9 -10 9 -2 0 6 -4 14 -8 17
-5 3 -10 94 -11 203 -1 108 -4 199 -6 201 -2 3 2 11 10 19 8 8 15 20 15 26 0
7 -4 6 -10 -3 -6 -9 -10 -10 -10 -3 0 20 13 22 156 24 86 1 131 5 119 10 -17
7 -16 8 7 6 15 -2 31 -7 35 -12z m123 11 c0 -2 -8 -10 -17 -17 -16 -13 -17
-12 -4 4 13 16 21 21 21 13z m101 -13 c13 -16 12 -17 -3 -4 -10 7 -18 15 -18
17 0 8 8 3 21 -13z m249 7 c0 -6 7 -10 16 -10 8 0 12 5 9 10 -3 6 -2 10 2 10
5 0 14 -9 21 -20 7 -12 16 -18 21 -16 5 3 16 -3 26 -14 10 -11 22 -17 27 -14
4 3 7 0 6 -7 -2 -7 7 -18 19 -24 13 -7 20 -15 16 -18 -3 -4 -1 -7 5 -7 7 0 11
-3 10 -7 -2 -10 13 -65 21 -78 4 -5 8 -32 9 -60 3 -45 -2 -64 -29 -117 -5 -10
-9 -22 -9 -28 0 -5 -17 -26 -37 -46 -21 -20 -32 -32 -24 -28 9 5 12 3 7 -4 -4
-7 -16 -12 -27 -12 -21 0 -24 -12 -9 -40 9 -17 7 -19 -19 -17 -16 1 -27 6 -24
10 3 5 11 6 19 3 16 -6 16 -4 8 17 -7 20 -44 11 -67 -17 -10 -11 -16 -16 -13
-10 8 17 -19 25 -34 11 -10 -9 -11 -9 -6 0 5 9 2 11 -9 6 -10 -3 -21 0 -26 8
-8 12 -11 12 -19 -1 -6 -10 -10 -11 -10 -2 0 6 -7 12 -15 12 -8 0 -15 5 -15
10 0 6 -9 10 -20 10 -11 0 -20 5 -20 10 0 6 -6 10 -13 10 -7 0 -22 7 -33 16
-10 8 -13 13 -6 9 18 -9 15 2 -11 40 -19 28 -26 32 -37 22 -10 -9 -11 -9 -6 0
12 22 15 52 5 58 -9 6 -13 -7 -10 -35 2 -13 1 -13 -8 0 -5 8 -7 18 -4 23 3 5
-1 13 -8 19 -11 7 -9 8 6 6 16 -2 21 3 23 33 2 27 -1 38 -14 43 -13 5 -15 2
-9 -21 5 -21 4 -25 -5 -17 -17 17 -8 50 13 46 11 -2 17 4 18 18 3 37 31 104
57 134 10 12 12 16 3 11 -9 -5 -12 -4 -7 3 4 6 13 9 21 6 9 -4 13 1 12 15 -2
25 -5 26 -31 4 -21 -18 -21 -18 -3 3 9 11 14 24 10 29 -5 4 2 2 15 -4 12 -7
20 -16 17 -22 -4 -5 -2 -9 4 -9 5 0 13 5 16 10 4 6 11 8 16 5 5 -4 9 -1 9 4 0
6 11 11 24 11 14 0 27 3 30 8 7 11 96 13 96 2z m243 -10 c4 0 5 5 1 12 -5 8
-3 8 7 2 8 -5 96 -11 196 -14 160 -4 180 -3 170 10 -10 13 -10 13 4 2 24 -18
29 -48 12 -71 -12 -18 -25 -21 -79 -21 -41 0 -63 -4 -59 -10 3 -5 1 -10 -6
-10 -8 0 -8 -4 1 -15 7 -9 19 -14 27 -11 8 3 11 1 8 -5 -4 -5 -14 -7 -23 -5
-15 5 -17 -9 -15 -157 1 -89 2 -166 3 -172 0 -5 7 -1 15 9 8 11 15 15 15 9 0
-14 -25 -34 -33 -26 -4 3 -7 -1 -7 -10 0 -9 -4 -17 -10 -17 -5 0 -7 -8 -4 -17
5 -17 5 -17 -6 0 -6 9 -22 17 -35 17 -13 0 -27 5 -30 10 -4 6 -9 8 -13 6 -4
-2 -6 81 -5 185 2 172 1 189 -15 190 -10 0 -12 3 -4 6 30 12 7 22 -55 25 l-68
3 -3 35 c-2 19 -9 42 -15 50 -9 12 -9 13 3 3 8 -7 18 -13 23 -13z m493 7 c12
-12 26 -8 18 6 -6 9 -4 9 8 -1 12 -10 50 -12 146 -10 94 2 128 0 125 -8 -2 -7
0 -15 5 -18 6 -3 8 -15 5 -26 -4 -14 -1 -20 8 -18 20 4 27 18 24 45 -1 13 0
21 4 17 9 -9 7 -73 -2 -67 -5 3 -6 -5 -3 -18 l7 -24 -14 24 c-9 16 -17 20 -21
12 -4 -6 -12 -8 -18 -5 -6 4 -8 2 -4 -4 3 -6 2 -14 -4 -17 -6 -4 -9 -1 -8 7 2
10 -18 14 -86 16 -81 3 -88 1 -82 -15 6 -17 5 -17 -8 0 -14 18 -32 24 -21 7 3
-5 3 -10 -2 -10 -10 0 -10 -86 0 -96 4 -5 12 -2 17 6 6 9 5 18 -3 23 -8 6 -8
7 3 4 8 -2 14 -12 12 -21 -3 -15 7 -17 71 -15 41 1 80 -1 86 -5 6 -4 10 -21 9
-37 -2 -23 -9 -32 -33 -39 -28 -9 -28 -10 -3 -6 15 2 25 -1 22 -6 -3 -4 -18
-7 -34 -6 -16 1 -26 6 -24 10 3 4 -18 8 -45 8 -31 0 -51 -4 -51 -11 0 -8 -5
-8 -15 1 -8 7 -15 11 -15 9 -6 -65 -4 -131 3 -136 6 -4 8 1 4 13 -7 18 -6 18
7 2 11 -15 28 -18 103 -17 99 2 113 -2 113 -32 0 -10 4 -19 10 -19 5 0 6 8 3
17 -6 15 -5 16 9 3 11 -10 12 -17 5 -22 -8 -5 -5 -14 8 -30 19 -21 19 -22 1
-8 -11 8 -22 15 -25 15 -3 0 -5 3 -3 8 1 4 -2 7 -7 7 -5 0 -11 -5 -13 -11 -5
-16 -312 -18 -327 -1 -9 9 -9 12 1 12 8 0 9 3 3 8 -13 9 -14 452 -1 445 5 -3
7 5 4 19 -5 25 11 33 28 15z m-1115 -34 c13 -16 12 -17 -3 -4 -17 13 -22 21
-14 21 2 0 10 -8 17 -17z m1055 -9 c-3 -16 -56 -74 -68 -74 -5 0 4 12 20 28
17 16 29 36 27 49 -1 13 3 19 11 16 7 -2 11 -11 10 -19z m-1482 -9 c-4 -8 -10
-15 -15 -15 -4 0 -6 7 -3 15 4 8 10 15 15 15 4 0 6 -7 3 -15z m548 -31 c-9
-16 -10 -14 -9 8 1 15 6 23 11 18 4 -4 4 -16 -2 -26z m-102 20 c0 -8 -19 -13
-24 -6 -3 5 1 9 9 9 8 0 15 -2 15 -3z m573 -23 c-4 -3 -11 -10 -15 -15 -5 -5
-8 0 -8 12 0 15 4 20 16 15 9 -3 12 -9 7 -12z m59 -18 c-10 -4 -9 -10 5 -25
18 -20 18 -21 -4 -7 -13 8 -23 17 -23 21 0 4 -6 5 -14 2 -8 -3 -16 -2 -19 3
-3 4 11 8 31 9 21 1 31 -1 24 -3z m407 -21 c8 -14 5 -18 -12 -19 -12 0 -17 1
-10 4 7 2 9 11 6 19 -4 12 -8 12 -22 2 -14 -12 -14 -11 -2 4 15 19 26 16 40
-10z m-4352 -44 c-3 -8 -6 -5 -6 6 -1 11 2 17 5 13 3 -3 4 -12 1 -19z m4680
-3 c0 -17 -13 -20 -21 -6 -4 5 0 12 6 14 7 3 13 6 14 6 0 1 1 -6 1 -14z m820
-77 c-3 -8 -6 -5 -6 6 -1 11 2 17 5 13 3 -3 4 -12 1 -19z m-2673 -14 c9 -3 13
-11 10 -16 -4 -6 -10 -5 -15 3 -6 10 -9 5 -9 -14 0 -16 4 -26 10 -22 6 3 7 -1
4 -9 -3 -9 -11 -16 -17 -16 -6 0 -8 2 -5 6 3 3 2 21 -2 40 -8 34 -4 39 24 28z
m-2258 -56 c-10 -6 -22 -6 -26 -2 -5 5 3 10 18 11 22 1 24 0 8 -9z m-22 -46
c3 -5 -8 -22 -24 -37 -17 -16 -30 -26 -30 -23 0 4 -3 15 -7 25 -6 15 -4 16 9
6 12 -11 18 -9 32 6 13 15 14 20 4 24 -9 4 -9 6 -1 6 6 1 14 -3 17 -7z m3327
-15 c-10 -9 -11 -8 -5 6 3 10 9 15 12 12 3 -3 0 -11 -7 -18z m863 -15 c3 -5
-1 -9 -9 -9 -8 0 -12 4 -9 9 3 4 7 8 9 8 2 0 6 -4 9 -8z m-4261 -37 c-7 -21
-12 -19 -10 4 0 11 5 18 9 15 4 -3 5 -11 1 -19z m2838 -12 c13 -16 12 -17 -3
-4 -17 13 -22 21 -14 21 2 0 10 -8 17 -17z m530 0 c13 -17 13 -17 -5 -3 -18
13 -19 13 -14 -1 4 -9 1 -16 -7 -16 -10 0 -11 5 -4 19 12 22 13 22 30 1z
m-1325 -22 c0 -16 -3 -17 -14 -9 -12 10 -7 19 13 28 1 0 1 -9 1 -19z m222 -26
c-3 -3 -9 2 -12 12 -6 14 -5 15 5 6 7 -7 10 -15 7 -18z m-24 -1 c3 -8 2 -12
-4 -9 -6 3 -10 10 -10 16 0 14 7 11 14 -7z m-2324 -8 c0 -2 -8 -10 -17 -17
-16 -13 -17 -12 -4 4 13 16 21 21 21 13z m1975 -16 c3 -5 -1 -10 -9 -10 -9 0
-16 5 -16 10 0 6 4 10 9 10 6 0 13 -4 16 -10z m1415 -25 c0 -5 -5 -3 -10 5 -5
8 -10 20 -10 25 0 6 5 3 10 -5 5 -8 10 -19 10 -25z m279 19 c4 3 13 0 21 -6
13 -8 12 -9 -1 -5 -9 3 -21 1 -26 -4 -5 -5 -9 0 -10 14 0 12 1 16 4 9 3 -6 8
-10 12 -8z m315 0 c3 -8 2 -12 -4 -9 -6 3 -10 10 -10 16 0 14 7 11 14 -7z
m-1459 -3 c3 -5 2 -12 -3 -15 -5 -3 -9 1 -9 9 0 17 3 19 12 6z m595 5 c0 -2
-8 -10 -17 -17 -16 -13 -17 -12 -4 4 13 16 21 21 21 13z m183 -11 c-3 -9 -8
-14 -10 -11 -3 3 -2 9 2 15 9 16 15 13 8 -4z m492 5 c-3 -5 -14 -10 -23 -9
-14 0 -13 2 3 9 27 11 27 11 20 0z m248 -4 c4 -11 0 -13 -15 -11 -11 3 -23 7
-27 11 -3 4 2 4 12 1 9 -4 17 -2 17 3 0 15 7 12 13 -4z m307 0 c0 -3 -4 -8
-10 -11 -5 -3 -10 -1 -10 4 0 6 5 11 10 11 6 0 10 -2 10 -4z m-3833 -68 c-3
-8 -6 -5 -6 6 -1 11 2 17 5 13 3 -3 4 -12 1 -19z m-890 -180 c-3 -8 -6 -5 -6
6 -1 11 2 17 5 13 3 -3 4 -12 1 -19z m10 -90 c-3 -7 -5 -2 -5 12 0 14 2 19 5
13 2 -7 2 -19 0 -25z m127 -14 c3 -7 -3 -18 -12 -25 -14 -11 -15 -11 -5 1 10
10 9 16 -4 25 -14 11 -14 12 0 12 9 0 18 -6 21 -13z m920 -43 c-2 -3 -12 3
-22 13 -16 17 -16 18 5 5 12 -7 20 -15 17 -18z m-934 -23 c0 -18 -2 -20 -9 -8
-6 8 -7 18 -5 22 9 14 14 9 14 -14z m1096 -9 c3 -6 1 -16 -6 -22 -10 -9 -11
-9 -5 2 4 8 2 17 -6 22 -9 6 -10 9 -2 9 6 0 15 -5 19 -11z m2054 -19 l13 -25
-20 20 c-11 11 -18 24 -16 28 6 10 7 9 23 -23z m124 19 c-2 -4 4 -9 13 -11 15
-3 14 -5 -5 -10 -12 -3 -20 -2 -16 3 3 5 0 9 -5 9 -6 0 -11 -6 -11 -12 0 -9
-3 -8 -9 2 -12 18 -7 26 18 26 11 0 18 -3 15 -7z m151 -9 c-3 -4 1 -11 7 -13
7 -3 -4 -4 -26 -2 -46 5 -54 11 -26 18 12 3 18 1 14 -5 -4 -6 -1 -8 7 -6 8 3
13 11 11 17 -1 7 2 10 8 6 6 -3 8 -10 5 -15z m310 11 c-6 -5 -21 -11 -35 -15
-21 -5 -20 -3 5 9 35 17 42 18 30 6z m-2730 -11 c3 -6 -1 -7 -9 -4 -18 7 -21
14 -7 14 6 0 13 -4 16 -10z m60 0 c3 -6 -1 -7 -9 -4 -18 7 -21 14 -7 14 6 0
13 -4 16 -10z m2140 -4 c17 7 29 -13 14 -22 -8 -4 -9 -3 -5 4 4 7 2 12 -3 12
-13 0 -13 -3 -5 -24 3 -9 11 -13 17 -9 6 3 2 -5 -9 -19 -10 -14 -23 -24 -28
-21 -5 3 -6 0 -4 -8 3 -8 10 -13 16 -12 13 3 9 -24 -6 -39 -8 -8 -9 -5 -5 11
4 14 1 21 -9 21 -21 0 -40 -62 -32 -109 5 -33 4 -41 -7 -39 -8 2 -13 -3 -11
-10 1 -8 -2 -11 -7 -8 -5 3 -14 -1 -21 -9 -14 -17 -105 -21 -115 -6 -10 17
-45 8 -45 -11 0 -10 -4 -18 -10 -18 -5 0 -7 -6 -5 -12 3 -8 -5 -13 -22 -14
-16 -1 -22 1 -15 3 6 3 12 9 12 14 0 6 -6 7 -12 3 -7 -4 -5 2 5 13 14 16 15
23 6 29 -8 5 -10 3 -4 -6 5 -9 4 -11 -3 -6 -7 4 -12 2 -12 -5 0 -7 -3 -9 -6
-6 -10 10 17 38 28 31 15 -10 29 18 16 33 -8 11 -7 12 7 7 10 -4 16 -3 14 2
-2 5 12 26 33 47 l36 39 12 -24 c10 -21 10 -21 -3 -5 -10 12 -17 14 -22 8 -3
-6 -1 -11 4 -11 17 0 13 -47 -4 -54 -23 -9 -18 -26 8 -22 12 2 27 0 33 -5 7
-6 19 -2 32 10 23 19 30 51 11 51 -5 0 -8 -4 -5 -9 4 -5 -3 -7 -14 -4 -17 5
-18 8 -8 21 8 10 9 13 1 9 -12 -8 -53 50 -53 75 0 8 9 23 20 33 16 14 17 20 8
27 -8 4 0 6 20 4 17 -2 32 1 32 5 0 5 -5 9 -12 9 -6 0 -8 3 -5 6 4 4 12 2 19
-3 26 -21 75 -23 92 -4 11 12 13 21 6 29 -7 8 -7 9 1 3 6 -5 17 -7 24 -5z
m379 -8 c-5 -8 -2 -9 10 -5 10 4 15 3 11 -3 -3 -6 -1 -10 5 -10 11 0 -3 -34
-24 -56 -28 -29 -55 -64 -50 -64 3 0 -4 -12 -15 -26 -24 -30 -26 -45 -10 -61
13 -13 42 -6 33 8 -3 6 0 17 7 25 10 13 10 17 -2 25 -10 6 -11 9 -1 9 7 0 15
-7 18 -15 8 -21 37 -19 58 4 12 13 14 21 6 26 -6 4 -9 13 -6 21 7 17 -6 18
-23 2 -9 -9 -12 -9 -7 -1 3 6 -1 13 -11 16 -10 3 0 4 21 3 22 0 41 4 43 10 2
6 -8 10 -26 9 -29 -2 -29 -1 -13 20 11 14 23 20 36 17 15 -4 18 -1 14 14 -4
15 0 20 16 22 16 1 18 -1 6 -8 -8 -5 -12 -12 -8 -15 3 -4 16 3 27 14 25 25 39
28 20 4 -12 -15 -12 -16 3 -11 9 4 24 1 34 -7 16 -11 17 -15 4 -31 -13 -16
-13 -17 0 -10 8 5 2 -3 -14 -16 -19 -16 -27 -30 -23 -41 4 -11 2 -14 -9 -10
-9 3 -14 -1 -14 -12 0 -12 5 -15 16 -11 15 6 15 4 3 -10 -8 -10 -15 -12 -17
-5 -7 20 -20 12 -31 -19 -10 -30 -10 -30 11 -16 16 12 25 13 35 4 11 -9 12 -7
7 8 -4 10 -4 16 1 12 4 -4 9 -20 10 -37 2 -22 -1 -28 -12 -24 -22 9 -104 -18
-96 -31 4 -6 -5 -3 -20 7 -31 20 -37 21 -33 5 1 -7 1 -10 -1 -5 -3 4 -26 7
-51 7 -29 0 -42 -4 -34 -9 8 -5 0 -7 -22 -7 -20 1 -38 8 -44 17 -7 11 -6 16 4
16 7 0 11 -4 9 -8 -3 -4 2 -10 11 -13 10 -4 13 -2 8 6 -21 34 -1 124 36 158 3
3 11 12 18 21 10 14 9 16 -5 16 -10 0 -27 1 -38 2 -20 2 -20 2 -1 16 17 13 17
17 5 31 -13 16 -12 16 9 5 27 -14 88 -5 96 15 3 8 8 14 11 14 4 0 3 -5 -1 -12z
m183 6 c-3 -3 -12 -4 -19 -1 -8 3 -5 6 6 6 11 1 17 -2 13 -5z m-367 -29 c0 4
11 0 25 -9 23 -15 24 -15 18 1 -5 14 -3 16 7 6 9 -8 10 -16 3 -25 -5 -7 -10
-26 -11 -42 -2 -24 0 -27 13 -16 13 11 14 10 10 -2 -6 -16 -16 -18 -93 -17
-24 0 -41 -4 -39 -8 3 -5 -9 -8 -26 -8 -48 1 -66 -11 -64 -43 1 -15 7 -27 12
-27 6 0 16 -4 24 -9 10 -6 12 -5 7 2 -4 7 -1 12 8 12 10 0 13 6 10 18 -5 16
-5 16 6 0 11 -19 56 -26 45 -8 -3 6 -1 10 5 10 6 0 8 5 5 10 -3 6 -1 10 6 10
9 0 9 4 -1 15 -10 12 -8 13 10 10 61 -12 61 -13 24 -53 -36 -38 -40 -47 -24
-57 5 -3 7 0 4 8 -3 8 1 19 9 26 11 9 17 7 28 -6 13 -16 12 -17 -3 -4 -17 13
-20 11 -22 -16 -1 -7 -5 -13 -9 -13 -16 1 -48 -38 -50 -60 l-1 -22 -18 22
c-20 25 -23 40 -8 40 6 0 10 6 10 14 0 15 -24 16 -37 1 -4 -4 -2 -5 6 0 10 5
12 4 7 -3 -5 -9 -13 -9 -27 -2 -11 7 -19 7 -19 1 0 -11 -26 -9 -37 4 -5 4 -1
5 7 0 8 -5 12 -4 7 0 -13 15 -39 15 -33 -1 3 -7 2 -13 -2 -13 -4 1 -9 0 -12
-1 -21 -8 -37 -6 -37 6 0 10 4 11 12 4 9 -7 17 -3 29 15 9 14 12 25 7 25 -5 0
-8 11 -7 25 2 13 -1 22 -5 19 -5 -3 -9 1 -9 8 0 9 -3 9 -10 -2 -11 -17 -13
-10 -4 14 3 9 14 16 24 16 17 0 35 25 32 43 -1 4 3 7 9 7 8 0 8 4 0 14 -9 11
-9 16 0 22 8 4 9 3 5 -4 -4 -7 -2 -12 3 -12 6 0 11 5 11 11 0 5 5 7 11 4 6 -4
22 4 36 16 13 13 26 23 29 22 2 -2 18 -3 35 -3 21 0 28 4 23 13 -5 8 -2 8 9
-2 9 -7 17 -10 17 -6z m381 -2 c12 -16 12 -17 -1 -7 -8 6 -22 14 -30 17 -13 5
-12 6 1 6 9 1 23 -7 30 -16z m-511 3 c0 -3 -4 -8 -10 -11 -5 -3 -10 -1 -10 4
0 6 5 11 10 11 6 0 10 -2 10 -4z m-2139 -43 c13 -17 13 -17 -6 -3 -11 8 -22
16 -24 17 -2 2 0 3 6 3 6 0 17 -8 24 -17z m1874 7 c-3 -5 -14 -10 -23 -9 -14
0 -13 2 3 9 27 11 27 11 20 0z m782 -12 c-3 -8 -6 -5 -6 6 -1 11 2 17 5 13 3
-3 4 -12 1 -19z m-2611 -15 c-7 -7 -26 7 -26 19 0 6 6 6 15 -2 9 -7 13 -15 11
-17z m-1285 -6 c-10 -9 -11 -8 -5 6 3 10 9 15 12 12 3 -3 0 -11 -7 -18z m1359
13 c0 -5 -4 -10 -9 -10 -6 0 -13 5 -16 10 -3 6 1 10 9 10 9 0 16 -4 16 -10z
m-1324 -38 c-18 -16 -18 -16 -6 6 6 13 14 21 18 18 3 -4 -2 -14 -12 -24z
m3821 3 c0 -8 -4 -12 -9 -9 -5 3 -6 10 -3 15 9 13 12 11 12 -6z m27 -1 c3 -8
2 -12 -4 -9 -6 3 -10 10 -10 16 0 14 7 11 14 -7z m-814 -14 c0 -5 -2 -10 -4
-10 -3 0 -8 5 -11 10 -3 6 -1 10 4 10 6 0 11 -4 11 -10z m615 1 c3 -5 2 -12
-3 -15 -5 -3 -9 1 -9 9 0 17 3 19 12 6z m-2271 -16 c-10 -8 -23 -15 -28 -15
-6 0 -1 7 10 15 10 8 23 15 28 15 6 0 1 -7 -10 -15z m1976 -31 c0 -2 -7 -4
-15 -4 -8 0 -15 4 -15 10 0 5 7 7 15 4 8 -4 15 -8 15 -10z m-244 -42 c-3 -3 0
-12 7 -21 10 -14 10 -14 -4 -4 -9 7 -20 9 -25 5 -4 -4 -3 0 4 9 6 9 8 20 4 24
-4 5 -1 5 6 1 7 -5 11 -11 8 -14z m-1641 -1 c-9 -8 -36 -10 -30 -2 2 4 11 8
20 8 8 0 13 -3 10 -6z m1499 -2 c-2 -4 4 -12 13 -18 10 -6 14 -10 8 -10 -5 -1
-21 8 -35 19 -24 18 -24 19 -3 17 12 0 20 -4 17 -8z m776 -53 c0 -2 -7 -7 -16
-10 -8 -3 -12 -2 -9 4 6 10 25 14 25 6z m-393 -31 c0 -8 -4 -12 -9 -9 -5 3 -6
10 -3 15 9 13 12 11 12 -6z m-3 -55 c-6 -6 -10 -3 -10 10 0 13 4 16 10 10 7
-7 7 -13 0 -20z m-349 -8 c-3 -3 -11 0 -18 7 -9 10 -8 11 6 5 10 -3 15 -9 12
-12z m-801 -152 c-6 -5 -24 21 -24 34 0 6 6 1 14 -10 8 -10 12 -21 10 -24z
m-68 -85 c-1 -8 -5 -17 -8 -21 -5 -4 -4 16 1 34 3 9 9 -1 7 -13z m-87 -111
c-6 -8 -15 -12 -18 -8 -3 4 0 9 7 11 6 3 9 10 6 15 -4 7 -2 8 5 4 9 -6 9 -11
0 -22z m-9 -29 c0 -12 -19 -12 -23 0 -4 9 -1 12 9 8 7 -3 14 -7 14 -8z m844
-56 c-9 -15 -20 -10 -20 10 0 15 3 17 13 9 7 -6 10 -14 7 -19z m281 21 c3 -5
-1 -10 -9 -10 -9 0 -16 5 -16 10 0 6 4 10 9 10 6 0 13 -4 16 -10z m220 -20
c-14 -27 -14 -30 0 -30 8 0 15 6 15 13 0 9 2 9 8 1 10 -17 172 -17 172 -1 0 9
2 9 8 0 4 -6 25 -13 46 -15 33 -3 40 -7 43 -28 5 -47 -6 -52 -123 -53 l-109
-2 0 -55 0 -55 69 -3 c48 -2 72 1 78 10 6 10 8 10 8 1 0 -7 7 -13 15 -13 8 0
15 -4 15 -10 0 -5 4 -10 10 -10 5 0 7 7 4 15 -4 8 -2 15 3 15 5 0 9 -13 8 -29
0 -16 -2 -28 -4 -26 -2 2 -11 -6 -21 -17 -15 -19 -28 -22 -101 -22 l-84 -1 -3
-67 -4 -68 116 0 c114 0 116 0 116 -23 0 -13 5 -28 11 -34 19 -19 -23 -24
-186 -21 l-150 3 -5 178 c-4 143 -8 180 -20 187 -13 9 -13 10 1 10 11 0 16 12
18 45 1 25 13 64 27 90 28 50 43 62 19 15z m225 15 c0 -2 -6 -5 -13 -8 -8 -3
-14 1 -14 8 0 7 6 11 14 8 7 -3 13 -6 13 -8z m97 8 c-11 -10 23 -42 39 -36 8
3 20 0 28 -6 16 -14 319 -14 311 -1 -3 4 8 12 23 18 25 9 27 7 27 -14 -1 -13
-4 -27 -8 -30 -3 -3 0 -15 6 -25 10 -16 9 -21 -2 -28 -11 -7 -11 -9 0 -13 8
-3 5 -7 -9 -10 -12 -4 -20 -2 -16 3 3 5 -23 9 -60 9 l-64 0 -1 -182 c-2 -196
-2 -206 -14 -225 -11 -18 -82 -16 -97 2 -7 8 -9 15 -5 15 4 0 2 7 -5 15 -7 8
-9 15 -4 15 5 0 7 62 4 137 -3 76 -3 140 0 143 3 3 5 21 4 40 l-1 35 -76 0
c-41 0 -74 2 -71 4 2 2 -4 10 -14 18 -14 10 -14 12 -1 8 12 -4 15 0 14 17 -1
13 2 28 7 35 14 18 -29 38 -48 22 -22 -18 -16 -2 8 21 19 18 41 30 25 13z
m-337 -8 c0 -2 -6 -8 -13 -14 -10 -8 -14 -7 -14 2 0 8 6 14 14 14 7 0 13 -1
13 -2z m-435 -25 c-9 -15 17 -23 26 -9 7 11 11 12 17 1 7 -9 35 -13 104 -11
75 1 100 -2 121 -16 15 -9 27 -22 27 -27 0 -6 6 -8 14 -5 9 4 13 -2 11 -16 -1
-12 4 -37 11 -54 7 -18 10 -33 6 -33 -4 0 0 -5 8 -10 13 -9 13 -10 0 -10 -12
-1 -11 -3 3 -14 12 -9 14 -16 8 -21 -6 -3 -11 -1 -11 5 0 6 -4 8 -10 5 -5 -3
-10 -14 -10 -24 0 -10 -7 -24 -15 -31 -8 -7 -13 -15 -11 -19 5 -9 -21 -31 -28
-24 -3 4 -6 -1 -6 -10 0 -13 -10 -17 -37 -18 -21 -1 -65 -2 -98 -3 l-60 -1 -3
-87 -3 -88 -39 0 c-27 0 -42 5 -48 18 -5 9 -9 119 -8 244 1 132 -3 224 -8 220
-5 -3 -6 0 -2 6 4 6 13 9 22 5 11 -4 14 0 10 21 -3 15 -1 24 5 21 5 -4 7 -10
4 -15z m-25 6 c0 -2 -8 -10 -17 -17 -16 -13 -17 -12 -4 4 13 16 21 21 21 13z
m274 -5 c4 -5 -3 -7 -14 -4 -23 6 -26 13 -6 13 8 0 17 -4 20 -9z m441 -9 c-3
-3 -11 0 -18 7 -9 10 -8 11 6 5 10 -3 15 -9 12 -12z m-410 -12 c3 -5 1 -10 -4
-10 -6 0 -11 5 -11 10 0 6 2 10 4 10 3 0 8 -4 11 -10z m-344 -37 c-12 -20 -14
-14 -5 12 4 9 9 14 11 11 3 -2 0 -13 -6 -23z m423 -89 c3 -8 2 -12 -4 -9 -6 3
-10 10 -10 16 0 14 7 11 14 -7z m177 -57 c-10 -9 -11 -8 -5 6 3 10 9 15 12 12
3 -3 0 -11 -7 -18z m-1656 -59 c5 4 5 1 1 -6 -6 -9 -11 -10 -20 -3 -7 6 -17 7
-21 3 -5 -4 -5 -1 -1 6 6 9 11 10 20 3 7 -6 17 -7 21 -3z m1460 -7 c-3 -6 -11
-11 -16 -11 -5 0 -4 6 3 14 14 16 24 13 13 -3z m45 -1 c-20 -13 -33 -13 -25 0
3 6 14 10 23 10 15 0 15 -2 2 -10z m334 -19 c3 -5 -1 -11 -9 -14 -9 -4 -12 -1
-8 9 6 16 10 17 17 5z m-397 -25 c0 -8 -6 -12 -15 -9 -11 5 -11 7 0 14 7 5 13
9 14 9 0 0 1 -6 1 -14z m336 -17 c-8 -8 -13 -7 -18 2 -5 8 -4 10 3 5 7 -4 12
-2 12 5 0 7 3 9 7 6 4 -4 2 -12 -4 -18z m64 7 c0 -7 -7 -13 -16 -12 -9 1 -15
-4 -14 -9 1 -6 -7 -11 -18 -11 -18 0 -18 2 -5 12 9 6 12 15 8 19 -4 5 -2 6 3
2 6 -3 17 -2 25 4 8 5 15 9 16 9 0 0 1 -6 1 -14z m-408 -15 c8 -5 9 -11 3 -15
-5 -3 -15 1 -22 9 -14 16 -3 20 19 6z m-1509 -52 c0 -4 -7 -9 -15 -13 -9 -3
-15 0 -15 8 0 7 7 13 15 13 8 0 15 -4 15 -8z m-40 -39 c0 -5 -2 -10 -4 -10 -3
0 -8 5 -11 10 -3 6 -1 10 4 10 6 0 11 -4 11 -10z m-50 -30 c0 -5 -5 -10 -11
-10 -5 0 -7 5 -4 10 3 6 8 10 11 10 2 0 4 -4 4 -10z m1231 -4 c12 7 11 -7 -1
-26 -6 -9 -10 -10 -10 -3 0 6 -2 17 -3 25 -2 7 -2 10 0 5 3 -4 9 -5 14 -1z
m2579 10 c0 -3 -4 -8 -10 -11 -5 -3 -10 -1 -10 4 0 6 5 11 10 11 6 0 10 -2 10
-4z m-1750 -15 c0 -5 -7 -12 -16 -15 -14 -5 -15 -4 -4 9 14 17 20 19 20 6z
m1722 -43 c-8 -8 -9 -4 -5 13 4 13 8 18 11 10 2 -7 -1 -18 -6 -23z m-3967 -68
c3 -5 1 -10 -4 -10 -6 0 -11 5 -11 10 0 6 2 10 4 10 3 0 8 -4 11 -10z m25 -40
c6 -11 8 -20 6 -20 -3 0 -10 9 -16 20 -6 11 -8 20 -6 20 3 0 10 -9 16 -20z
m3883 3 c-4 -10 -9 -11 -19 -2 -18 15 -18 15 5 15 11 0 17 -5 14 -13z m-16
-43 c-1 -12 -5 -16 -10 -11 -5 5 -6 14 -3 20 11 16 15 13 13 -9z m-3744 -33
c-2 -4 -14 -5 -26 -1 -20 6 -21 5 -7 -12 14 -18 14 -18 -2 -5 -22 17 -15 29
16 27 13 0 22 -5 19 -9z m258 -160 c-6 -8 -7 -18 -3 -22 4 -5 2 -5 -5 -1 -14
8 -6 36 9 36 7 0 6 -5 -1 -13z m3379 7 c0 -8 -19 -13 -24 -6 -3 5 1 9 9 9 8 0
15 -2 15 -3z m-145 -93 c-6 -5 -21 -11 -35 -15 -21 -5 -20 -3 5 9 35 17 42 18
30 6z m-30 -41 c-3 -5 -12 -10 -18 -10 -7 0 -6 4 3 10 19 12 23 12 15 0z m-55
-27 c0 -1 -8 -7 -18 -12 -13 -7 -19 -6 -19 2 0 7 9 13 19 13 10 0 18 -1 18 -3z
m-106 -12 c4 -5 -3 -7 -14 -4 -23 6 -26 13 -6 13 8 0 17 -4 20 -9z m43 -17
c-3 -3 -12 -4 -19 -1 -8 3 -5 6 6 6 11 1 17 -2 13 -5z m-1477 -54 c-13 -9 -13
-10 1 -10 8 0 20 5 25 10 7 7 11 6 11 -4 0 -9 -14 -28 -30 -43 -26 -25 -28
-25 -18 -5 6 12 17 22 24 23 7 0 -1 5 -17 11 -21 8 -25 13 -15 19 8 5 19 9 24
9 6 0 3 -5 -5 -10z m-49 -37 c-12 -20 -14 -14 -5 12 4 9 9 14 11 11 3 -2 0
-13 -6 -23z m22 -8 c-3 -9 -8 -14 -10 -11 -3 3 -2 9 2 15 9 16 15 13 8 -4z
m-1083 -115 c0 -5 -2 -10 -4 -10 -3 0 -8 5 -11 10 -3 6 -1 10 4 10 6 0 11 -4
11 -10z m-6 -82 c-3 -4 -9 -8 -15 -8 -5 0 -9 4 -9 8 0 5 7 9 15 9 8 0 12 -4 9
-9z m96 -87 c0 -4 -7 -16 -16 -27 -14 -18 -15 -18 -4 4 6 12 8 28 4 34 -4 7
-3 8 4 4 7 -4 12 -11 12 -15z m683 -91 c4 0 5 5 1 12 -4 7 -3 8 4 4 11 -7 6
-36 -7 -36 -3 0 -12 10 -20 23 -10 17 -11 19 0 10 7 -7 17 -13 22 -13z m-23
-14 c0 -3 -4 -8 -10 -11 -5 -3 -10 -1 -10 4 0 6 5 11 10 11 6 0 10 -2 10 -4z
m-587 -56 c-3 -12 -8 -19 -11 -16 -5 6 5 36 12 36 2 0 2 -9 -1 -20z m-19 -26
c3 -8 2 -12 -4 -9 -6 3 -10 10 -10 16 0 14 7 11 14 -7z m60 -43 c3 -5 -1 -11
-9 -14 -9 -4 -12 -1 -8 9 6 16 10 17 17 5z m36 -11 c-7 -5 -9 -13 -5 -20 5 -8
4 -11 -3 -6 -16 10 -11 45 6 39 10 -5 11 -8 2 -13z m-15 -58 c-3 -3 -11 0 -18
7 -9 10 -8 11 6 5 10 -3 15 -9 12 -12z m370 -20 c-3 -3 -11 0 -18 7 -9 10 -8
11 6 5 10 -3 15 -9 12 -12z m-268 -77 c0 -6 -6 -12 -12 -12 -6 0 -12 6 -12 12
0 6 6 12 12 12 6 0 12 -6 12 -12z"/>
<path d="M2645 3529 c-4 -6 -4 -13 -1 -16 3 -4 -1 -14 -10 -24 -8 -9 -16 -26
-17 -38 -1 -11 -5 -21 -9 -21 -4 0 -5 -7 -2 -15 5 -12 20 -15 63 -14 31 1 50
4 43 6 -6 3 -9 10 -6 15 5 7 2 8 -6 3 -9 -5 -10 -2 -5 14 6 20 -2 26 -28 22
-5 -1 -6 3 -2 9 3 6 12 8 18 4 7 -3 4 1 -7 10 -10 8 -15 20 -10 27 5 8 3 10
-6 4 -10 -6 -12 -4 -7 8 7 19 2 23 -8 6z m5 -93 c0 -2 -8 -10 -17 -17 -16 -13
-17 -12 -4 4 13 16 21 21 21 13z"/>
<path d="M3039 3614 c0 -5 -1 -80 -2 -166 -2 -173 -4 -168 60 -168 27 0 34 4
30 14 -4 10 -1 13 8 9 8 -3 12 -9 9 -14 -7 -12 -2 -11 39 6 53 22 69 58 39 82
-15 12 -14 13 6 3 13 -7 26 -10 28 -8 8 9 11 118 3 123 -4 3 -6 12 -3 19 3 8
-5 23 -17 35 -13 12 -19 21 -15 21 5 0 -4 10 -20 22 -21 17 -45 24 -96 26 -37
3 -68 0 -69 -4z m118 -10 c-3 -3 -12 -4 -19 -1 -8 3 -5 6 6 6 11 1 17 -2 13
-5z m43 -28 c0 -2 -7 -7 -16 -10 -8 -3 -12 -2 -9 4 6 10 25 14 25 6z m-43 -12
c-3 -3 -12 -4 -19 -1 -8 3 -5 6 6 6 11 1 17 -2 13 -5z m68 -52 c-3 -3 -11 0
-18 7 -9 10 -8 11 6 5 10 -3 15 -9 12 -12z m12 -114 c-3 -8 -6 -5 -6 6 -1 11
2 17 5 13 3 -3 4 -12 1 -19z"/>
<path d="M3255 3219 c-4 -6 -5 -12 -2 -15 2 -3 7 2 10 11 7 17 1 20 -8 4z"/>
<path d="M3618 3603 c-17 -4 -23 -16 -19 -37 1 -5 -4 -4 -12 2 -19 16 -41 -9
-32 -38 7 -23 21 -26 28 -7 4 9 6 9 6 0 2 -21 -22 -27 -35 -9 -8 12 -14 14
-19 6 -4 -6 -1 -18 6 -26 10 -12 10 -15 -2 -12 -15 3 -24 -58 -9 -67 5 -3 7
-12 4 -19 -3 -7 2 -19 10 -26 9 -7 14 -16 11 -20 -2 -4 4 -15 15 -25 11 -10
20 -15 20 -11 0 3 10 0 23 -7 24 -16 107 -12 107 5 0 5 4 6 10 3 5 -3 21 6 35
21 20 21 23 30 13 41 -13 16 -19 75 -6 67 5 -3 6 -15 2 -26 -4 -14 -2 -18 5
-14 7 5 8 1 4 -10 -4 -11 -2 -15 4 -11 16 10 23 47 10 47 -8 0 -7 3 2 9 10 7
11 13 2 30 -7 12 -9 25 -6 30 3 5 -1 15 -8 23 -8 7 -12 19 -9 27 3 8 0 11 -7
7 -6 -4 -11 0 -11 10 0 14 -2 15 -17 3 -9 -8 -14 -9 -10 -3 12 20 -72 47 -115
37z m32 -13 c0 -5 -4 -10 -10 -10 -5 0 -10 5 -10 10 0 6 5 10 10 10 6 0 10 -4
10 -10z m-70 -114 c0 -3 -4 -8 -10 -11 -5 -3 -10 -1 -10 4 0 6 5 11 10 11 6 0
10 -2 10 -4z m205 -6 c3 -6 -1 -7 -9 -4 -18 7 -21 14 -7 14 6 0 13 -4 16 -10z
m-194 -42 c-3 -21 -6 -26 -9 -15 -3 17 3 47 11 47 2 0 1 -15 -2 -32z m-31 -16
c0 -15 -2 -15 -10 -2 -13 20 -13 33 0 25 6 -3 10 -14 10 -23z m20 -32 c0 -5
-2 -10 -4 -10 -3 0 -8 5 -11 10 -3 6 -1 10 4 10 6 0 11 -4 11 -10z m10 -24 c0
-2 -7 -7 -16 -10 -8 -3 -12 -2 -9 4 6 10 25 14 25 6z m55 -46 c3 -5 1 -10 -4
-10 -6 0 -11 5 -11 10 0 6 2 10 4 10 3 0 8 -4 11 -10z"/>
<path d="M3258 2666 c-19 -14 -26 -52 -8 -41 6 4 7 11 4 17 -4 7 -2 8 4 4 6
-4 9 -13 5 -21 -8 -23 34 -18 47 5 6 11 8 25 5 30 -9 15 -25 2 -19 -14 3 -8 0
-17 -7 -22 -8 -5 -10 -3 -4 6 4 7 2 16 -6 21 -10 6 -11 9 -1 9 6 0 12 5 12 10
0 13 -11 12 -32 -4z"/>
<path d="M3826 2619 c-14 -23 -15 -30 -5 -27 8 3 13 11 12 17 -2 6 1 11 6 11
5 0 11 7 15 15 10 27 -9 16 -28 -16z"/>
<path d="M3735 2530 c-4 -6 3 -10 14 -10 25 0 27 6 6 13 -8 4 -17 2 -20 -3z"/>
<path d="M3529 2672 c-1 -4 -1 -11 0 -15 1 -5 -7 -6 -17 -3 -12 4 -26 -3 -43
-21 -13 -15 -17 -22 -8 -15 9 6 20 8 24 4 5 -4 5 -1 1 6 -4 6 -3 12 3 12 5 0
12 -6 14 -12 4 -10 6 -10 6 0 1 6 6 12 12 12 5 0 7 -4 4 -10 -3 -5 -1 -10 6
-10 6 0 9 10 7 23 -3 15 0 24 8 24 7 0 10 -6 7 -14 -3 -7 -1 -13 5 -13 17 0 7
33 -11 36 -9 1 -18 -1 -18 -4z"/>
<path d="M4200 1911 c0 -5 7 -11 14 -14 10 -4 13 -1 9 9 -6 15 -23 19 -23 5z"/>
<path d="M3105 1808 c-8 -24 0 -133 10 -140 14 -11 83 -10 90 1 3 5 -3 12 -12
14 -14 4 -13 5 4 6 13 1 23 -6 26 -16 4 -17 5 -17 6 0 0 10 5 16 10 12 29 -17
35 69 9 108 -19 26 -46 39 -32 15 6 -10 4 -10 -7 0 -7 6 -32 12 -56 12 -26 0
-45 -5 -48 -12z m125 -63 c0 -5 -5 -3 -10 5 -8 13 -10 12 -10 -4 0 -11 -3 -17
-6 -13 -3 3 -3 15 1 28 6 17 9 19 16 8 5 -8 9 -18 9 -24z m30 15 c0 -5 -2 -10
-4 -10 -3 0 -8 5 -11 10 -3 6 -1 10 4 10 6 0 11 -4 11 -10z m-35 -50 c-3 -5
-12 -10 -18 -10 -7 0 -6 4 3 10 19 12 23 12 15 0z"/>
<path d="M3371 569 c-8 -15 -9 -24 -1 -37 10 -15 11 -14 7 5 -3 14 -1 20 8 17
6 -3 18 2 25 11 7 8 11 15 9 16 -2 0 -11 2 -20 4 -8 1 -21 -6 -28 -16z"/>
</g>
</svg>
