<?xml version="1.0" standalone="no"?>
<!DOCTYPE svg PUBLIC "-//W3C//DTD SVG 20010904//EN"
 "http://www.w3.org/TR/2001/REC-SVG-20010904/DTD/svg10.dtd">
<svg version="1.0" xmlns="http://www.w3.org/2000/svg"
 width="512.000000pt" height="512.000000pt" viewBox="0 0 512.000000 512.000000"
 preserveAspectRatio="xMidYMid meet">
<metadata>
Created by potrace 1.16, written by Peter Selinger 2001-2019
</metadata>
<g transform="translate(0.000000,512.000000) scale(0.100000,-0.100000)"
fill="#000000" stroke="none">
<path d="M2240 5105 c-389 -48 -766 -188 -1091 -404 -504 -335 -871 -825
-1043 -1395 -41 -132 -81 -333 -96 -468 -13 -125 -13 -431 0 -556 108 -1014
825 -1880 1804 -2176 243 -74 468 -106 746 -106 209 0 324 10 505 46 317 63
625 188 890 362 159 104 256 182 399 321 372 364 620 820 720 1326 36 181 46
296 46 505 0 209 -10 324 -46 505 -181 920 -867 1676 -1768 1949 -132 41 -333
81 -468 96 -131 14 -469 11 -598 -5z m15 -1106 c98 -30 180 -86 271 -184 l84
-89 17 24 c64 93 190 195 290 236 221 89 474 19 607 -166 87 -121 125 -234
133 -401 l6 -116 71 5 c307 19 545 -241 523 -572 -20 -300 -234 -589 -495
-667 -49 -14 -48 -3 -13 -132 48 -180 52 -378 11 -525 -43 -155 -109 -241
-228 -300 -76 -37 -78 -37 -197 -36 -116 0 -126 2 -315 58 -247 73 -311 86
-415 86 -102 0 -164 -13 -415 -86 -337 -97 -481 -83 -626 61 -137 137 -180
445 -103 740 12 44 23 89 26 100 4 18 -4 24 -49 38 -111 35 -243 133 -323 240
-95 126 -151 275 -161 429 -22 324 219 585 522 566 l71 -5 6 112 c11 224 92
395 239 507 134 102 297 129 463 77z"/>
<path d="M2022 3939 c-86 -15 -160 -56 -232 -128 -124 -125 -177 -305 -152
-521 6 -47 9 -86 8 -87 -1 -1 -40 5 -86 13 -244 44 -421 -52 -501 -272 -32
-86 -32 -242 0 -344 76 -246 234 -406 462 -470 39 -11 73 -21 75 -23 2 -1 -10
-41 -26 -88 -47 -140 -62 -231 -62 -374 0 -256 63 -394 211 -464 50 -23 68
-26 161 -25 96 0 119 5 265 49 287 86 342 97 490 92 136 -5 157 -10 485 -107
211 -63 356 -48 458 47 90 85 124 197 125 408 1 143 -15 237 -63 380 l-29 85
42 10 c235 59 385 188 474 405 160 393 -73 758 -443 696 -38 -6 -81 -14 -95
-17 l-25 -5 9 73 c11 87 3 233 -17 305 -38 141 -137 269 -250 323 -225 107
-470 17 -642 -235 l-57 -84 -63 87 c-76 106 -130 159 -209 207 -97 58 -211 82
-313 64z m186 -216 c160 -75 271 -289 260 -501 -5 -81 -10 -102 -42 -167 -97
-197 -290 -215 -453 -43 -93 99 -143 229 -145 378 -1 127 28 213 98 284 78 80
179 98 282 49z m1018 -2 c167 -96 209 -356 94 -588 -136 -274 -416 -319 -534
-85 -99 197 -27 498 152 635 98 74 200 88 288 38z m-1651 -720 c137 -63 248
-229 262 -392 23 -278 -223 -390 -440 -199 -198 175 -227 506 -52 598 73 38
136 36 230 -7z m2236 28 c225 -48 231 -408 9 -612 -194 -178 -422 -115 -447
123 -20 198 139 436 326 486 59 16 51 16 112 3z m-1116 -334 c140 -30 298
-124 449 -266 156 -148 281 -349 338 -544 31 -108 34 -362 5 -438 -45 -115
-128 -128 -362 -57 -467 142 -568 141 -1055 -5 -282 -85 -357 -39 -368 220 -9
249 72 479 248 697 158 197 384 354 565 393 79 17 97 17 180 0z"/>
</g>
</svg>
